<?xml version="1.0" encoding="UTF-8" standalone="no"?>
<!DOCTYPE svg PUBLIC "-//W3C//DTD SVG 20010904//EN" "http://www.w3.org/TR/2001/REC-SVG-20010904/DTD/svg10.dtd">
<svg version="1.0" xmlns="http://www.w3.org/2000/svg" width="869.000000pt" height="873.000000pt" viewBox="0 0 869.000000 873.000000" preserveAspectRatio="xMidYMid meet">
<metadata>
Created by potrace 1.16, written by Peter Selinger 2001-2019
</metadata>
<g transform="translate(0.000000,873.000000) scale(0.100000,-0.100000)" fill="#000000" stroke="none">
<path d="M4020 8026 c-75 -14 -154 -47 -187 -78 -16 -15 -23 -33 -23 -58 0 -23 -10 -51 -25 -74 -37 -55 -55 -93 -55 -116 0 -29 35 -77 68 -94 19 -10 31 -27 39 -58 9 -31 20 -48 43 -60 48 -27 34 -92 -34 -160 -41 -40 -35 -37 -219 -104 -87 -31 -132 -53 -141 -68 -7 -12 -18 -86 -25 -169 -7 -81 -19 -182 -27 -225 -8 -42 -17 -142 -21 -222 -5 -133 -3 -150 17 -202 l21 -58 126 -61 125 -62 -48 -47 c-50 -49 -107 -149 -160 -285 -40 -101 -99 -217 -122 -241 -50 -52 -176 -140 -275 -191 -15 -8 -32 -24 -38 -35 -9 -17 -4 -26 38 -66 27 -26 73 -60 104 -76 l56 -28 39 24 c21 14 83 60 137 102 115 90 133 84 66 -21 -23 -38 -45 -70 -49 -73 -4 -3 -51 -72 -105 -155 -54 -82 -109 -166 -122 -186 -13 -20 -38 -72 -57 -115 l-32 -79 -44 3 c-50 3 -101 36 -131 86 -23 38 -25 106 -4 185 14 55 82 220 107 260 11 18 8 25 -30 64 -52 53 -55 83 -9 102 32 13 219 143 268 187 30 26 129 169 129 187 0 18 -50 26 -175 26 -204 0 -354 -48 -503 -160 -40 -30 -77 -55 -81 -55 -17 0 -239 -238 -266 -285 -16 -27 -34 -57 -41 -65 -27 -33 -55 -158 -65 -290 -10 -130 -12 -138 -54 -225 -65 -131 -78 -149 -141 -196 l-58 -43 27 -9 c15 -5 27 -12 27 -15 0 -13 -55 -87 -95 -129 -56 -58 -114 -166 -130 -243 -8 -36 -19 -78 -24 -93 -15 -38 -14 -47 4 -47 14 0 13 -4 -1 -32 -12 -23 -25 -104 -40 -253 -33 -312 -32 -325 16 -436 23 -50 47 -101 55 -113 8 -11 20 -46 26 -78 6 -32 15 -58 20 -58 13 0 86 131 94 167 5 28 10 32 28 28 19 -5 28 5 64 67 24 40 62 112 85 161 24 48 45 87 49 87 11 0 -12 -134 -42 -245 -63 -235 -61 -218 -48 -575 11 -314 11 -330 -10 -465 -11 -77 -21 -143 -21 -146 0 -3 14 -24 31 -45 17 -22 40 -56 50 -77 18 -34 18 -39 4 -68 -9 -17 -15 -45 -13 -62 3 -28 7 -33 43 -39 50 -9 278 -10 299 -2 33 13 14 67 -56 162 -51 69 -78 128 -78 174 0 20 -5 49 -11 65 -6 15 -15 156 -21 313 -9 273 -9 288 10 335 11 28 29 94 41 148 12 53 27 114 35 134 8 21 17 70 20 108 8 102 83 290 230 580 42 83 79 167 82 188 4 20 12 37 19 37 7 0 59 -20 116 -44 75 -33 107 -42 120 -35 10 5 25 6 33 3 25 -9 104 5 121 22 22 22 19 29 -25 74 l-39 40 21 35 20 36 62 -7 c33 -4 67 -11 74 -17 20 -16 7 -70 -35 -150 -28 -54 -57 -87 -132 -154 -106 -95 -187 -153 -212 -153 -9 0 -40 -21 -68 -46 -68 -61 -68 -81 5 -227 31 -61 67 -141 80 -177 57 -148 127 -319 180 -436 20 -44 41 -155 50 -254 4 -58 13 -94 25 -112 11 -14 19 -35 19 -46 0 -27 -43 -60 -96 -73 -24 -6 -50 -19 -58 -28 -41 -45 -24 -188 32 -280 37 -60 145 -143 181 -139 24 3 29 13 62 111 20 60 46 117 57 128 28 25 30 38 35 194 4 108 8 137 26 170 48 89 16 220 -121 499 -50 103 -88 224 -88 281 0 58 23 121 71 197 31 47 69 76 254 191 50 31 123 80 164 109 161 114 147 108 225 108 46 -1 78 -6 90 -15 10 -8 44 -19 75 -26 78 -16 84 -20 119 -92 17 -35 40 -71 50 -80 11 -10 52 -27 93 -38 88 -24 229 -91 354 -168 150 -92 182 -118 217 -179 17 -31 51 -86 75 -122 59 -88 68 -125 54 -225 -6 -44 -13 -120 -16 -170 -20 -331 -24 -376 -35 -390 -7 -8 -28 -17 -49 -21 -20 -4 -45 -11 -55 -17 -31 -15 -80 -74 -112 -132 l-29 -54 18 -48 c49 -132 136 -216 225 -217 l47 -1 56 113 c31 62 65 122 74 132 15 16 17 31 11 84 -6 60 -4 68 29 130 19 36 44 93 55 126 20 59 20 62 3 197 -23 186 -23 442 0 503 24 64 22 161 -5 240 -19 58 -33 76 -117 159 -52 51 -120 111 -150 134 -82 60 -151 121 -151 132 0 6 18 23 40 38 41 29 50 26 25 -7 -25 -33 -17 -53 42 -103 31 -26 78 -67 103 -90 26 -24 50 -43 53 -43 3 0 27 38 52 84 25 46 53 86 63 88 9 3 49 6 87 7 119 3 172 22 158 57 -2 7 18 37 46 68 28 31 51 64 51 75 0 29 -34 51 -89 58 -54 6 -58 10 -124 119 -4 7 3 24 15 39 29 38 102 208 124 291 24 95 25 278 0 358 -9 33 -44 115 -77 182 -60 124 -78 177 -63 187 5 3 38 6 73 8 l64 4 17 -50 c13 -38 35 -67 96 -127 94 -93 126 -106 210 -89 81 16 112 37 166 116 52 75 59 109 34 170 -25 60 -49 280 -42 390 9 125 39 256 73 315 91 154 121 237 94 255 -23 14 -51 121 -62 239 l-12 126 47 61 c48 61 176 317 176 351 0 10 -6 21 -14 24 -21 8 -56 -14 -56 -34 0 -15 -128 -132 -144 -132 -3 0 -28 -16 -55 -35 -26 -19 -53 -35 -59 -35 -6 0 -31 14 -54 30 -35 25 -57 31 -120 36 l-76 7 -7 84 c-4 46 -11 86 -16 89 -22 13 -67 -9 -95 -47 -25 -34 -33 -39 -59 -34 -102 18 -105 18 -132 -1 -16 -10 -32 -17 -38 -15 -49 16 -66 17 -99 6 -21 -8 -50 -25 -65 -39 -19 -18 -41 -27 -74 -30 -71 -7 -84 -13 -133 -66 -26 -27 -57 -50 -73 -53 -37 -8 -72 -45 -110 -117 -17 -32 -41 -61 -55 -68 -22 -10 -25 -9 -30 16 -7 36 -22 134 -41 268 -16 114 -66 328 -88 373 -20 41 -66 60 -213 87 -76 14 -150 32 -162 40 -13 9 -32 34 -42 57 l-18 41 29 27 c16 15 29 35 29 46 0 10 11 62 24 116 19 78 30 105 54 130 17 18 38 48 46 68 13 32 13 39 0 57 -8 11 -30 26 -49 32 -33 11 -35 14 -35 59 0 60 -18 77 -97 96 -68 17 -96 17 -183 1z m-261 -1390 c33 -124 38 -176 20 -176 -6 0 -29 17 -50 38 -28 28 -37 45 -35 63 2 13 7 53 11 89 6 68 15 113 20 108 2 -2 17 -56 34 -122z m389 -205 c78 -7 86 -10 119 -44 l36 -36 -25 -33 c-48 -62 -115 -128 -130 -128 -8 0 -40 18 -72 40 -48 33 -65 40 -106 40 -27 0 -52 4 -55 10 -14 22 17 91 58 131 34 32 47 39 67 34 14 -3 62 -10 108 -14z m267 -529 c-43 -26 -49 -36 -88 -137 -78 -203 -157 -464 -157 -519 0 -29 -49 -172 -90 -261 -53 -118 -163 -269 -218 -299 -94 -52 -157 -78 -204 -83 -53 -5 -168 12 -168 25 0 10 26 47 54 77 16 17 40 27 85 34 72 12 153 55 200 106 37 41 89 183 141 388 18 67 40 140 50 163 11 23 29 68 41 100 12 33 25 64 29 69 4 6 24 51 45 100 49 118 76 173 97 191 27 26 131 64 173 64 l40 0 -30 -18z m1040 -369 c28 -51 78 -210 70 -223 -9 -15 -83 -22 -105 -10 -21 11 -22 16 -16 118 7 104 14 162 21 162 2 0 15 -21 30 -47z"/>
<path d="M4720 3348 c0 -7 -11 -114 -25 -238 -14 -124 -30 -335 -35 -470 -14 -364 -17 -376 -95 -527 -36 -71 -65 -139 -65 -155 0 -23 13 -42 54 -82 64 -61 73 -88 58 -170 -9 -48 -9 -63 1 -73 9 -9 57 -14 160 -16 170 -2 171 -2 163 78 -5 55 -40 157 -61 179 -8 7 -32 42 -54 76 -34 53 -41 71 -41 114 0 83 78 451 115 541 45 111 62 172 85 309 27 160 26 173 -15 242 -38 63 -102 134 -121 134 -6 0 -32 16 -57 35 -48 37 -67 43 -67 23z"/>
<path d="M3985 1315 c-168 -31 -261 -99 -335 -245 -77 -154 -81 -310 -11 -451 30 -61 89 -139 103 -139 5 0 24 -11 42 -25 100 -76 240 -104 434 -85 225 22 214 18 234 72 15 42 23 100 19 151 -2 33 -29 17 -59 -36 -31 -54 -79 -98 -129 -118 -15 -6 -64 -11 -108 -11 -67 -1 -93 4 -163 32 -73 29 -91 42 -147 102 -35 38 -73 89 -85 114 -50 103 -64 234 -35 331 15 51 89 173 105 173 5 0 30 13 57 30 183 113 436 53 490 -116 17 -54 37 -70 47 -36 9 32 29 222 23 228 -10 10 -280 43 -347 43 -36 -1 -96 -7 -135 -14z"/>
<path d="M855 1309 c-33 -5 -158 -6 -279 -2 -184 5 -218 4 -214 -8 3 -8 24 -21 47 -30 23 -8 47 -22 52 -30 12 -20 12 -775 -1 -799 -5 -10 -26 -24 -45 -30 -48 -16 -44 -30 8 -30 23 0 80 -1 127 -2 128 -1 170 1 170 10 0 4 -20 13 -44 20 -60 16 -66 37 -66 248 l0 174 58 2 c86 2 156 -3 166 -12 4 -4 11 -23 15 -42 12 -59 36 -47 49 25 23 123 14 160 -31 120 -16 -15 -41 -18 -138 -20 l-119 -2 0 159 0 159 38 7 c20 4 69 8 109 8 62 1 75 -2 97 -23 14 -14 26 -35 26 -48 0 -34 35 -30 48 5 6 15 12 54 14 87 3 68 5 67 -87 54z"/>
<path d="M4885 1150 c-144 -31 -271 -121 -316 -223 -18 -40 -24 -70 -24 -132 0 -100 24 -154 110 -241 64 -64 99 -82 228 -112 79 -18 171 -9 290 29 82 26 165 96 204 172 23 46 25 59 21 141 -4 74 -9 101 -32 144 -36 71 -115 145 -203 188 -61 31 -83 37 -155 40 -45 2 -101 -1 -123 -6z m158 -65 c149 -39 239 -158 238 -317 0 -167 -123 -288 -291 -288 -124 0 -236 73 -295 194 -56 115 -32 275 53 343 93 75 186 97 295 68z"/>
<path d="M1367 1128 c-15 -10 9 -28 39 -28 42 0 44 -10 44 -303 0 -173 -4 -286 -10 -298 -6 -11 -21 -19 -35 -19 -16 0 -25 -6 -25 -15 0 -13 35 -15 253 -15 234 0 253 1 253 18 0 9 4 41 8 70 7 44 5 52 -8 52 -8 0 -23 -11 -32 -25 -42 -65 -157 -95 -224 -60 -58 30 -61 50 -58 326 3 272 2 269 61 269 42 0 28 23 -19 32 -49 9 -231 6 -247 -4z"/>
<path d="M1968 1129 c-16 -10 0 -29 25 -29 48 0 47 2 45 -316 l-3 -299 -29 -5 c-16 -3 -31 -11 -34 -17 -3 -10 52 -13 251 -13 l254 0 7 37 c9 57 7 103 -4 103 -6 0 -25 -16 -43 -36 -70 -81 -196 -88 -254 -14 -17 21 -18 531 -1 548 7 7 25 12 40 12 18 0 28 5 28 14 0 10 -18 16 -62 20 -74 7 -205 4 -220 -5z"/>
<path d="M2458 1132 c-62 -3 -72 -14 -34 -34 65 -34 247 -242 296 -337 16 -32 20 -59 20 -138 0 -123 -5 -143 -36 -143 -15 0 -24 -6 -24 -15 0 -15 12 -17 110 -18 129 -1 170 3 170 18 0 11 -11 15 -38 15 -21 0 -43 5 -50 12 -8 8 -12 52 -12 130 0 100 3 125 20 159 48 93 186 248 273 306 20 14 37 30 37 34 0 14 -216 17 -230 3 -2 -3 3 -10 13 -15 31 -18 18 -50 -55 -148 -40 -53 -80 -107 -89 -121 -8 -13 -20 -20 -26 -17 -6 4 -37 46 -70 94 -32 48 -64 94 -71 101 -7 8 -20 28 -28 45 -15 28 -15 31 1 43 9 7 14 18 10 24 -6 10 -28 10 -187 2z"/>
<path d="M5487 1132 c-29 -6 -19 -21 22 -32 21 -5 42 -17 45 -26 8 -21 6 -533 -3 -563 -4 -17 -17 -28 -39 -33 -63 -17 -30 -26 121 -34 245 -12 314 -7 456 33 73 21 149 92 185 173 36 80 39 215 7 278 -23 46 -81 96 -161 140 -112 61 -134 65 -385 66 -127 1 -238 0 -248 -2z m401 -62 c29 -5 85 -25 126 -44 58 -27 81 -45 104 -78 89 -132 82 -282 -20 -378 -63 -59 -199 -97 -311 -87 -104 9 -101 1 -105 317 l-3 268 23 5 c44 8 135 7 186 -3z"/>
<path d="M6364 1128 c-5 -8 21 -23 58 -32 l27 -6 3 -268 c4 -326 3 -335 -36 -342 -16 -3 -31 -11 -34 -17 -3 -10 47 -13 226 -13 l229 0 11 43 c17 64 18 80 5 84 -6 2 -19 -9 -28 -26 -23 -45 -67 -64 -134 -59 -31 2 -68 12 -83 22 l-28 18 0 129 0 129 33 0 c17 0 56 -3 86 -7 49 -5 55 -9 67 -40 8 -18 20 -33 28 -33 16 0 21 19 32 104 8 66 14 64 -75 31 -28 -10 -67 -15 -108 -13 l-64 3 3 120 3 120 64 3 c75 4 119 -11 132 -45 4 -12 15 -23 23 -23 14 0 21 19 40 101 l5 25 -240 0 c-133 -1 -243 -4 -245 -8z"/>
<path d="M6948 1132 c-10 -2 -18 -8 -18 -13 0 -10 8 -14 53 -23 l27 -6 0 -305 0 -305 -22 0 c-26 0 -55 -16 -46 -25 3 -3 69 -9 146 -11 103 -4 142 -3 147 6 10 16 -13 30 -51 30 -40 0 -44 13 -44 139 l0 93 58 -4 c74 -5 109 -30 195 -135 57 -69 79 -88 133 -114 59 -29 72 -31 135 -27 64 5 101 19 87 33 -3 3 -28 9 -55 14 -68 10 -96 32 -251 195 l-73 77 46 54 c73 86 91 148 61 220 -16 38 -72 79 -131 94 -38 10 -360 20 -397 13z m317 -62 c67 -32 90 -72 90 -155 0 -57 -4 -75 -20 -91 -33 -35 -60 -44 -129 -44 l-66 0 0 149 c0 110 3 151 13 154 27 11 73 6 112 -13z"/>
<path d="M1005 1120 c-3 -6 2 -13 12 -16 10 -3 28 -10 41 -15 l22 -9 -2 -297 -3 -297 -33 -10 c-59 -16 -30 -31 69 -34 112 -4 182 5 176 21 -2 7 -19 14 -37 17 -28 4 -35 11 -42 37 -5 18 -7 153 -6 300 l3 268 35 11 c19 6 36 16 38 23 5 14 -264 16 -273 1z"/>
</g>
</svg>