<svg id="Layer_1" data-name="Layer 1" xmlns="http://www.w3.org/2000/svg" viewBox="0 0 174.07 54.27"><defs><style>.cls-1{fill:#9b9a9a;}.cls-2{fill:#efb000;}.cls-3{fill:#003f6e;}</style></defs><title>1</title><path class="cls-1" d="M28.82,10.05,17.73,7.15c-2-.22-4.38,3.48-8.57,13.19a74.93,74.93,0,0,1-5.9,11.73A38.5,38.5,0,0,0,12,37.22c1.64-.76,3.61-3.31,7.94-13.32,3.8-8.84,6.64-14.25,8.87-13.86"/><path class="cls-2" d="M12,37.22,1.66,32.35C-.34,31-.27,24.6.51,13.94,1.12,5.84.93,2.57.69.64a14.11,14.11,0,0,1,10.42,14.6l0,.41c-.07,1.2-.15,2.49-.26,3.9C10.12,29.36,10,36.13,12,37.22Z"/><path class="cls-2" d="M37.74,54.27c-10.53-.22-12.4-8.44-13.39-13.44v-.06c-.46-2.71-1.9-13.47-2.22-16.46C21.05,14.53,19.9,7.86,17.75,7.14L28.83,10C31,11,33.15,25.13,34.31,35.76A133.71,133.71,0,0,0,37.74,54.27Z"/><path class="cls-3" d="M54.45.84A28,28,0,0,0,47.63,0C41.77,0,39,2.62,39,8v3.88H35a.76.76,0,0,0-.83.68.41.41,0,0,0,0,.11v3.56c0,.47.31.74.83.74h4V39.41h7V17h7.76V11.89H46.07V8.07a2.78,2.78,0,0,1,.84-2.36,4.84,4.84,0,0,1,2.78-.63,31.15,31.15,0,0,1,4.09.42h.15c.42,0,.58-.21.63-.63L55,1.73V1.62A.79.79,0,0,0,54.45.84Z"/><path class="cls-3" d="M66.24,40.09c-11.58,0-13-6.4-13-14.41s1.47-14.46,13-14.46,13.05,6.39,13.05,14.46S77.87,40.09,66.24,40.09Zm0-24c-5.61,0-5.82,3.3-5.82,9.59s.21,9.53,5.82,9.53,5.87-3.3,5.87-9.53S71.84,16.09,66.24,16.09Z"/><path class="cls-3" d="M96.52,16.61a33.93,33.93,0,0,0-7.39.68V39.41H83c-.32,0-.89-.32-.89-.79V16c0-2,1.2-2.66,3.72-3.41a36.31,36.31,0,0,1,9-1.31h.89c.74,0,.74,0,1.1.16a.83.83,0,0,1,.47.84v3.41C97.31,16.19,97.26,16.61,96.52,16.61Z"/><path class="cls-3" d="M115.38,38.09a.76.76,0,0,1-.62.79,21.42,21.42,0,0,1-6.55,1c-6,0-9-2.3-9-8.23v-27a1,1,0,0,1,.89-1.1l5.13-.94h.26c.47,0,.74.26.74.84v8.43h8.28V17h-8.28V31.51c0,2.31.94,3.25,3.67,3.25a18.42,18.42,0,0,0,4-.47h.21c.31,0,.52.21.57.58l.63,3A1.44,1.44,0,0,1,115.38,38.09Z"/><path class="cls-3" d="M125.08,39.41h-6.92a.06.06,0,0,1,0-.06v-27h7Zm-.42-31.08h-6a.47.47,0,0,1-.47-.47V.42a.42.42,0,0,1,.42-.42h6a.47.47,0,0,1,.47.46h0V7.92A.41.41,0,0,1,124.66,8.33Z"/><path class="cls-3" d="M151.07,37.78a.86.86,0,0,1-.58.79c-1.31.68-5.13,1.36-8.8,1.36-10.22,0-13-4.72-13-14.36s2.78-14.36,13-14.36a26.39,26.39,0,0,1,8.8,1.36,1,1,0,0,1,.58.84.75.75,0,0,1,0,.26l-.53,2.83a.76.76,0,0,1-.78.63.7.7,0,0,1-.32-.05,24.79,24.79,0,0,0-6.23-.94c-5.67,0-7.34,2.41-7.34,9.43s1.67,9.49,7.34,9.49a24.8,24.8,0,0,0,6.23-1h.32a.72.72,0,0,1,.78.58l.53,2.78A.65.65,0,0,1,151.07,37.78Z"/><path class="cls-3" d="M162.7,40a30.63,30.63,0,0,1-9.59-1.57.71.71,0,0,1-.53-.73v-.26l.64-3c.05-.42.26-.58.57-.58h.26a32.05,32.05,0,0,0,8,1.31c2.88,0,5.08-.89,5.08-3.42,0-3.09-2.09-3.15-5.19-3.67s-9-1.14-9-8.37c0-7.5,6.55-8.55,11.16-8.55a34.26,34.26,0,0,1,8.49,1.15.71.71,0,0,1,.63.75.17.17,0,0,1-.05.15l-.52,3.15a.58.58,0,0,1-.64.47h-.21A38.38,38.38,0,0,0,165,16c-2.52,0-5.19.58-5.19,3.2,0,2.93,2.83,3.09,5.66,3.51,4.14.68,8.59,1.63,8.59,8.44S169,40,162.7,40Z"/></svg>