<?xml version="1.0" standalone="no"?>
<!DOCTYPE svg PUBLIC "-//W3C//DTD SVG 20010904//EN"
 "http://www.w3.org/TR/2001/REC-SVG-20010904/DTD/svg10.dtd">
<svg version="1.0" xmlns="http://www.w3.org/2000/svg"
 width="227.000000pt" height="58.000000pt" viewBox="0 0 227.000000 58.000000"
 preserveAspectRatio="xMidYMid meet">

<g transform="translate(0.000000,58.000000) scale(0.100000,-0.100000)"
fill="#000000" stroke="none">
<path d="M2 357 c3 -223 3 -224 30 -264 27 -41 83 -75 146 -88 32 -7 32 -7 32
35 0 30 -5 42 -17 46 -89 29 -103 50 -103 159 l0 75 45 0 45 0 0 45 0 45 -45
0 -45 0 0 85 0 85 -46 0 -45 0 3 -223z"/>
<path d="M677 562 c-36 -39 -12 -86 40 -80 38 4 55 49 28 78 -23 25 -47 26
-68 2z"/>
<path d="M880 573 c-1 -5 0 -102 0 -217 1 -183 3 -213 19 -245 64 -123 224
-148 321 -51 69 69 77 180 20 259 -43 59 -98 84 -197 89 l-83 5 0 83 0 84 -40
0 c-22 0 -40 -3 -40 -7z m276 -287 c28 -28 34 -42 34 -75 0 -80 -41 -121 -118
-121 -75 0 -112 54 -112 165 l0 65 81 0 c79 0 82 -1 115 -34z"/>
<path d="M1450 555 c0 -21 -5 -25 -30 -25 -23 0 -30 4 -30 20 0 11 -4 20 -10
20 -5 0 -10 -22 -10 -50 0 -27 5 -50 10 -50 6 0 10 11 10 25 0 21 5 25 29 25
25 0 30 -5 34 -27 2 -16 5 -2 6 30 0 31 -1 57 -4 57 -3 0 -5 -11 -5 -25z"/>
<path d="M1560 525 l0 -55 33 1 c30 2 30 2 5 6 -19 3 -28 10 -28 23 0 13 9 20
28 23 l27 4 -27 2 c-36 1 -39 31 -3 31 14 0 25 5 25 10 0 6 -13 10 -30 10 -30
0 -30 -1 -30 -55z"/>
<path d="M2025 570 c3 -5 12 -10 20 -10 9 0 15 -15 18 -47 l3 -48 2 48 c2 34
6 47 17 47 8 0 15 5 15 10 0 6 -18 10 -41 10 -24 0 -38 -4 -34 -10z"/>
<path d="M2182 525 c0 -39 2 -51 7 -35 5 19 13 25 36 25 23 0 31 -6 36 -25 5
-16 7 -4 7 35 -1 33 -3 48 -5 33 -4 -24 -9 -28 -38 -28 -29 0 -34 4 -38 28 -2
15 -4 0 -5 -33z"/>
<path d="M1730 523 c-11 -25 -18 -48 -15 -51 2 -3 7 3 11 12 8 20 47 21 64 1
7 -9 15 -14 17 -11 6 5 -40 96 -49 96 -4 0 -16 -21 -28 -47z m43 7 c4 -15 0
-20 -14 -20 -21 0 -22 1 -13 24 8 22 21 20 27 -4z"/>
<path d="M1892 523 c3 -47 4 -48 38 -49 26 -1 28 -1 8 3 -26 4 -28 8 -28 49 0
24 -5 44 -11 44 -6 0 -9 -19 -7 -47z"/>
<path d="M445 391 c-46 -21 -101 -79 -112 -119 -5 -15 -8 -81 -8 -147 l0 -120
42 -3 41 -3 4 130 c3 122 4 131 28 156 14 14 44 31 67 38 41 11 43 13 43 49 0
36 -2 38 -32 38 -18 0 -51 -9 -73 -19z"/>
<path d="M665 398 c-3 -8 -4 -99 -3 -203 l3 -190 45 0 45 0 0 200 0 200 -43 3
c-28 2 -44 -1 -47 -10z"/>
<path d="M1373 395 c-12 -33 3 -249 20 -281 85 -161 308 -146 366 25 6 19 11
88 11 153 l0 119 -42 -3 -43 -3 -5 -125 c-7 -163 -22 -190 -109 -190 -31 0
-49 7 -73 29 l-33 29 -3 131 -4 131 -39 0 c-26 0 -42 -5 -46 -15z"/>
<path d="M1980 388 c-85 -46 -110 -108 -110 -275 l0 -113 45 0 45 0 0 123 c0
126 6 151 48 185 19 15 96 16 122 2 36 -19 45 -52 50 -180 l5 -125 43 -3 42
-3 0 123 c0 109 -3 129 -24 175 -48 101 -169 143 -266 91z"/>
</g>
</svg>
